# xmcd
#
# Track frame offsets: 
#        150
#        12740
#        27497
#        43173
#        56137
#        69057
#        81738
#        92233
#        104325
#        118163
#        129128
#        141907
#        153470
#        167424
#        179628
#        192528
#        205498
#        220183
#        232786
#        244478
#        259385
#        272018
#        284566
#        294737
#        307235
#
# Disc length: 4240 seconds
#
# Revision: 0
# Processed by: cddbd v1.5.2PL0 Copyright (c) Steve Scherf et al.
# Submitted via: ExactAudioCopy v1.3
#
DISCID=94108e19
DTITLE=Elmore James and His Broomdusters - Slide Order Of The Blues (The
DTITLE=Singles As And Bs 1952-1962) Disc 1
DYEAR=2016
DGENRE=Blues
TTITLE0=Dust My Broom
TTITLE1=I Believe
TTITLE2=I Held My Baby Last Night
TTITLE3=Baby, What's Wrong
TTITLE4=Sinful Woman
TTITLE5=Early In The Morning
TTITLE6=Hawaiian Boogie
TTITLE7=Country Boogie
TTITLE8=She Just Won't Do Right
TTITLE9=Can't Stop Lovin'
TTITLE10=Make A Little Love
TTITLE11=Strange Kinda Feeling
TTITLE12=Please Find My Baby
TTITLE13=Make My Dreams Come True
TTITLE14=Hand In Hand
TTITLE15=Sho Nuff I Do
TTITLE16=1839 Blues
TTITLE17=Dark And Dreary
TTITLE18=Rock My Baby Right
TTITLE19=Sunny Land
TTITLE20=Standing At The Crossroads
TTITLE21=Late Hours At Midnight
TTITLE22=The Way You Used To Treat Me (Mean And Evil)
TTITLE23=Happy Home
TTITLE24=No Love In My Heart
EXTD=
EXTT0=
EXTT1=
EXTT2=
EXTT3=
EXTT4=
EXTT5=
EXTT6=
EXTT7=
EXTT8=
EXTT9=
EXTT10=
EXTT11=
EXTT12=
EXTT13=
EXTT14=
EXTT15=
EXTT16=
EXTT17=
EXTT18=
EXTT19=
EXTT20=
EXTT21=
EXTT22=
EXTT23=
EXTT24=
PLAYORDER=
